<?xml version="1.0" encoding="utf-8"?>
<!-- Generator: Adobe Illustrator 26.5.0, SVG Export Plug-In . SVG Version: 6.00 Build 0)  -->
<svg version="1.1" id="Layer_2_00000109727227677542955620000013096889573307807404_"
	 xmlns="http://www.w3.org/2000/svg" xmlns:xlink="http://www.w3.org/1999/xlink" x="0px" y="0px" viewBox="0 0 3893 1275.4"
	 style="enable-background:new 0 0 3893 1275.4;" xml:space="preserve">
<style type="text/css">
	.st0{fill-rule:evenodd;clip-rule:evenodd;fill:#FFFFFF;}
	.st1{fill:#FFFFFF;}
	.st2{fill:#ED2224;}
	.st3{font-family:'Lato-BoldItalic';}
	.st4{font-size:236px;}
</style>
<g id="Layer_1-2">
	<g>
		<g>
			<polyline class="st0" points="620.5,0 15.1,0 15.1,128.8 241.4,128.8 241.4,761.4 395.4,761.4 395.4,128.8 620.5,128.8 			"/>
			<g>
				<polyline class="st0" points="2103.4,0 1896.9,0 1585.6,337.9 1710.4,403.6 1920.2,761.4 2119.3,761.4 1816.6,296 				"/>
				<polyline class="st0" points="1585.6,0 1432.3,0 1432.3,761.4 1585.6,761.4 1585.6,531 1710.4,403.6 1585.6,337.9 				"/>
				<polyline class="st0" points="2804.4,0 2661.6,0 2661.6,508.5 2650.4,761.4 2804.4,761.4 				"/>
				<polyline class="st0" points="2349.7,0 2200.3,0 2200.3,761.4 2343,761.4 2343,264.9 				"/>
				<polyline class="st0" points="2349.7,0 2343,264.9 2650.4,761.4 2661.6,508.5 				"/>
				<rect x="2962.3" class="st1" width="153.3" height="761.4"/>
				<polyline class="st0" points="3632.8,369.7 3538.5,497.9 3707.1,761.4 3893,761.4 				"/>
				<polyline class="st0" points="3869.8,0 3691.2,0 3541.8,244.3 3444.9,363.8 3184.7,761.4 3369.2,761.4 3538.5,497.9 
					3632.8,369.7 				"/>
				<polyline class="st0" points="3389.2,0 3209.3,0 3444.9,363.8 3541.8,244.3 				"/>
			</g>
		</g>
		<rect x="678.1" class="st1" width="552.9" height="135.8"/>
		<rect x="678.1" y="324.9" class="st2" width="552.9" height="135.8"/>
		<rect x="678.1" y="625.6" class="st1" width="552.9" height="135.8"/>
		<text transform="matrix(1 0 0 1 0 1210.99)" class="st1 st3 st4">VERTICAL TRANSPORT  SOLUTION</text>
	</g>
</g>
</svg>
